<!--?xml version="1.0" standalone="no"?-->
              <svg id="sw-js-blob-svg" viewBox="0 0 100 100" xmlns="http://www.w3.org/2000/svg" version="1.1">
                    <defs> 
                        <linearGradient id="sw-gradient" x1="0" x2="1" y1="1" y2="0">
                            <stop id="stop1" stop-color="rgba(255, 243, 227, 1)" offset="0%"></stop>
                            <stop id="stop2" stop-color="rgba(252, 248, 243, 1)" offset="100%"></stop>
                        </linearGradient>
                    </defs>
                <path fill="url(#sw-gradient)" d="M21,-35.8C28.1,-32.3,35.2,-28.4,39.4,-22.3C43.6,-16.3,44.9,-8.2,44.9,0C44.8,8.1,43.5,16.2,39.4,22.6C35.4,28.9,28.7,33.5,21.7,37.1C14.7,40.8,7.3,43.5,0.3,43C-6.7,42.5,-13.5,38.8,-20.6,35.1C-27.7,31.5,-35.1,28,-38.1,22.2C-41.2,16.4,-39.9,8.2,-39.7,0.1C-39.6,-8,-40.6,-16,-38.2,-23.1C-35.9,-30.2,-30.2,-36.4,-23.3,-39.9C-16.4,-43.5,-8.2,-44.5,-0.6,-43.4C7,-42.4,13.9,-39.3,21,-35.8Z" width="100%" height="100%" transform="translate(50 50)" stroke-width="0" style="transition: all 0.3s ease 0s;"></path>
              </svg>